<mxfile host="app.diagrams.net" modified="2020-05-12T14:14:51.922Z" agent="5.0 (Windows NT 10.0; Win64; x64) AppleWebKit/537.36 (KHTML, like Gecko) Chrome/81.0.4044.138 Safari/537.36" etag="ETQ_-H2BKRDphfxH1afq" version="13.1.0" type="github">
  <diagram id="VgPkdqbDOHomnc5ENLeE" name="Page-1">
    <mxGraphModel dx="782" dy="469" grid="1" gridSize="10" guides="1" tooltips="1" connect="1" arrows="1" fold="1" page="1" pageScale="1" pageWidth="827" pageHeight="1169" math="0" shadow="0">
      <root>
        <mxCell id="0" />
        <mxCell id="1" parent="0" />
        <mxCell id="KVtLhB1t64jjiSmEx8QC-1" value="" style="ellipse;html=1;shape=startState;fillColor=#000000;strokeColor=#ff0000;" vertex="1" parent="1">
          <mxGeometry x="384" y="20" width="30" height="30" as="geometry" />
        </mxCell>
        <mxCell id="KVtLhB1t64jjiSmEx8QC-2" value="" style="edgeStyle=orthogonalEdgeStyle;html=1;verticalAlign=bottom;endArrow=open;endSize=8;strokeColor=#ff0000;" edge="1" source="KVtLhB1t64jjiSmEx8QC-1" parent="1">
          <mxGeometry relative="1" as="geometry">
            <mxPoint x="399" y="110" as="targetPoint" />
          </mxGeometry>
        </mxCell>
        <mxCell id="KVtLhB1t64jjiSmEx8QC-3" value="Go to Dashboard/ Appointments" style="rounded=1;whiteSpace=wrap;html=1;arcSize=40;fontColor=#000000;fillColor=#ffffc0;strokeColor=#ff0000;" vertex="1" parent="1">
          <mxGeometry x="339" y="110" width="120" height="40" as="geometry" />
        </mxCell>
        <mxCell id="KVtLhB1t64jjiSmEx8QC-4" value="" style="edgeStyle=orthogonalEdgeStyle;html=1;verticalAlign=bottom;endArrow=open;endSize=8;strokeColor=#ff0000;" edge="1" source="KVtLhB1t64jjiSmEx8QC-3" parent="1">
          <mxGeometry relative="1" as="geometry">
            <mxPoint x="399" y="190" as="targetPoint" />
          </mxGeometry>
        </mxCell>
        <mxCell id="KVtLhB1t64jjiSmEx8QC-5" value="Client Creates a New Appointment" style="rounded=1;whiteSpace=wrap;html=1;arcSize=40;fontColor=#000000;fillColor=#ffffc0;strokeColor=#ff0000;" vertex="1" parent="1">
          <mxGeometry x="339" y="190" width="120" height="40" as="geometry" />
        </mxCell>
        <mxCell id="KVtLhB1t64jjiSmEx8QC-6" value="" style="edgeStyle=orthogonalEdgeStyle;html=1;verticalAlign=bottom;endArrow=open;endSize=8;strokeColor=#ff0000;" edge="1" source="KVtLhB1t64jjiSmEx8QC-5" parent="1">
          <mxGeometry relative="1" as="geometry">
            <mxPoint x="399" y="290" as="targetPoint" />
          </mxGeometry>
        </mxCell>
        <mxCell id="KVtLhB1t64jjiSmEx8QC-10" value="Fills in the form (Appointment Information)" style="rounded=1;whiteSpace=wrap;html=1;arcSize=40;fontColor=#000000;fillColor=#ffffc0;strokeColor=#ff0000;" vertex="1" parent="1">
          <mxGeometry x="340" y="290" width="120" height="40" as="geometry" />
        </mxCell>
        <mxCell id="KVtLhB1t64jjiSmEx8QC-11" value="" style="edgeStyle=orthogonalEdgeStyle;html=1;verticalAlign=bottom;endArrow=open;endSize=8;strokeColor=#ff0000;" edge="1" source="KVtLhB1t64jjiSmEx8QC-10" parent="1">
          <mxGeometry relative="1" as="geometry">
            <mxPoint x="399" y="390" as="targetPoint" />
          </mxGeometry>
        </mxCell>
        <mxCell id="KVtLhB1t64jjiSmEx8QC-12" value="" style="rhombus;whiteSpace=wrap;html=1;fillColor=#ffffc0;strokeColor=#ff0000;" vertex="1" parent="1">
          <mxGeometry x="359" y="464" width="80" height="40" as="geometry" />
        </mxCell>
        <mxCell id="KVtLhB1t64jjiSmEx8QC-13" value="Invalid Input&amp;nbsp;" style="edgeStyle=orthogonalEdgeStyle;html=1;align=left;verticalAlign=bottom;endArrow=open;endSize=8;strokeColor=#ff0000;entryX=0.567;entryY=1.033;entryDx=0;entryDy=0;entryPerimeter=0;" edge="1" source="KVtLhB1t64jjiSmEx8QC-12" parent="1" target="KVtLhB1t64jjiSmEx8QC-16">
          <mxGeometry x="-1" relative="1" as="geometry">
            <mxPoint x="600" y="400" as="targetPoint" />
          </mxGeometry>
        </mxCell>
        <mxCell id="KVtLhB1t64jjiSmEx8QC-14" value="" style="edgeStyle=orthogonalEdgeStyle;html=1;align=left;verticalAlign=top;endArrow=open;endSize=8;strokeColor=#ff0000;entryX=0.5;entryY=0;entryDx=0;entryDy=0;" edge="1" source="KVtLhB1t64jjiSmEx8QC-12" parent="1" target="KVtLhB1t64jjiSmEx8QC-18">
          <mxGeometry x="-1" relative="1" as="geometry">
            <mxPoint x="400" y="490" as="targetPoint" />
            <Array as="points" />
          </mxGeometry>
        </mxCell>
        <mxCell id="KVtLhB1t64jjiSmEx8QC-15" value="Valid&amp;nbsp;&lt;br&gt;Input" style="text;html=1;align=center;verticalAlign=middle;resizable=0;points=[];autosize=1;" vertex="1" parent="1">
          <mxGeometry x="350" y="504" width="40" height="30" as="geometry" />
        </mxCell>
        <mxCell id="KVtLhB1t64jjiSmEx8QC-16" value="Show &quot;Invalid Input&quot;&lt;br&gt;Message" style="rounded=1;whiteSpace=wrap;html=1;arcSize=40;fontColor=#000000;fillColor=#ffffc0;strokeColor=#ff0000;" vertex="1" parent="1">
          <mxGeometry x="530" y="290" width="120" height="40" as="geometry" />
        </mxCell>
        <mxCell id="KVtLhB1t64jjiSmEx8QC-17" value="" style="edgeStyle=orthogonalEdgeStyle;html=1;verticalAlign=bottom;endArrow=open;endSize=8;strokeColor=#ff0000;" edge="1" source="KVtLhB1t64jjiSmEx8QC-16" parent="1">
          <mxGeometry relative="1" as="geometry">
            <mxPoint x="460" y="310" as="targetPoint" />
          </mxGeometry>
        </mxCell>
        <mxCell id="KVtLhB1t64jjiSmEx8QC-18" value="Appointment gets a Pending Status" style="rounded=1;whiteSpace=wrap;html=1;arcSize=40;fontColor=#000000;fillColor=#ffffc0;strokeColor=#ff0000;" vertex="1" parent="1">
          <mxGeometry x="339" y="550" width="120" height="40" as="geometry" />
        </mxCell>
        <mxCell id="KVtLhB1t64jjiSmEx8QC-19" value="" style="edgeStyle=orthogonalEdgeStyle;html=1;verticalAlign=bottom;endArrow=open;endSize=8;strokeColor=#ff0000;exitX=0.5;exitY=1;exitDx=0;exitDy=0;" edge="1" source="KVtLhB1t64jjiSmEx8QC-18" parent="1">
          <mxGeometry relative="1" as="geometry">
            <mxPoint x="399" y="640" as="targetPoint" />
            <mxPoint x="400" y="630" as="sourcePoint" />
          </mxGeometry>
        </mxCell>
        <mxCell id="KVtLhB1t64jjiSmEx8QC-20" value="Choose from the Discount Coupons to use&amp;nbsp;" style="rounded=1;whiteSpace=wrap;html=1;arcSize=40;fontColor=#000000;fillColor=#ffffc0;strokeColor=#ff0000;" vertex="1" parent="1">
          <mxGeometry x="339" y="390" width="120" height="40" as="geometry" />
        </mxCell>
        <mxCell id="KVtLhB1t64jjiSmEx8QC-21" value="" style="edgeStyle=orthogonalEdgeStyle;html=1;verticalAlign=bottom;endArrow=open;endSize=8;strokeColor=#ff0000;entryX=0.5;entryY=0;entryDx=0;entryDy=0;" edge="1" source="KVtLhB1t64jjiSmEx8QC-20" parent="1" target="KVtLhB1t64jjiSmEx8QC-12">
          <mxGeometry relative="1" as="geometry">
            <mxPoint x="395" y="460" as="targetPoint" />
            <Array as="points">
              <mxPoint x="399" y="410" />
              <mxPoint x="399" y="464" />
            </Array>
          </mxGeometry>
        </mxCell>
        <mxCell id="KVtLhB1t64jjiSmEx8QC-25" value="Back to Dashboard" style="rounded=1;whiteSpace=wrap;html=1;arcSize=40;fontColor=#000000;fillColor=#ffffc0;strokeColor=#ff0000;" vertex="1" parent="1">
          <mxGeometry x="340" y="640" width="120" height="40" as="geometry" />
        </mxCell>
        <mxCell id="KVtLhB1t64jjiSmEx8QC-26" value="" style="edgeStyle=orthogonalEdgeStyle;html=1;verticalAlign=bottom;endArrow=open;endSize=8;strokeColor=#ff0000;" edge="1" source="KVtLhB1t64jjiSmEx8QC-25" parent="1">
          <mxGeometry relative="1" as="geometry">
            <mxPoint x="400" y="740" as="targetPoint" />
          </mxGeometry>
        </mxCell>
      </root>
    </mxGraphModel>
  </diagram>
</mxfile>
